<svg xmlns="http://www.w3.org/2000/svg" xmlns:xlink="http://www.w3.org/1999/xlink"><symbol fill="none" viewBox="0 0 16 16" id="icon-arrow" xmlns="http://www.w3.org/2000/svg"><path fill-rule="evenodd" clip-rule="evenodd" d="m8 .857-1.259 1.26 4.982 4.99H.857v1.786h10.866l-4.982 4.991L8 15.144 15.143 8 8 .857Z" fill="#fff"/></symbol><symbol fill="none" viewBox="0 0 24 25" id="icon-call" xmlns="http://www.w3.org/2000/svg"><path d="M11.903 0c-.73 0-.73 1.139 0 1.148 5.67.044 10.34 3.996 10.391 11.246 0 .765 1.12.755 1.111-.01h-.002C23.343 4.573 18.243.044 11.903 0Z" fill="#fff"/><path d="M19.362 11.192c-.017.756 1.1.792 1.11.027.093-4.307-2.562-7.855-7.553-8.229-.73-.053-.807 1.095-.078 1.148 4.328.329 6.608 3.283 6.52 7.054Zm-1.196 4.9c-.938-.543-1.893-.205-2.288.328l-.825 1.069c-.42.543-1.204.47-1.204.47-5.721-1.512-7.251-7.5-7.251-7.5s-.07-.81.453-1.245l1.033-.854c.516-.41.843-1.397.317-2.367C6.996 3.455 6.053 2.58 5.573 1.908c-.505-.632-1.265-.775-2.054-.348h-.017C1.86 2.521.062 4.32.637 6.17c.982 1.95 2.785 8.172 8.533 12.872 2.701 2.223 6.976 4.5 8.79 5.026l.018.027c1.788.596 3.527-1.272 4.455-2.963v-.014c.412-.818.275-1.592-.326-2.1-1.067-1.04-2.677-2.188-3.941-2.926Z" fill="#fff"/><path d="M13.701 7.227c1.825.107 2.71 1.06 2.804 3.017.034.765 1.145.712 1.11-.053-.12-2.555-1.453-3.98-3.853-4.112-.73-.044-.8 1.105-.06 1.148Z" fill="#fff"/></symbol><symbol fill="none" viewBox="0 0 20 20" id="icon-check" xmlns="http://www.w3.org/2000/svg"><circle cx="10" cy="10" r="10" fill="#FF7900"/><g clip-path="url(#ca)"><path d="m14.97 7.807-5.275 5.275c-.39.39-1.024.39-1.415 0L5.557 10.36a1 1 0 0 1 1.415-1.416l2.016 2.016 4.567-4.567a1 1 0 0 1 1.415 1.415Z" fill="#fff"/></g><defs><clipPath id="ca"><path fill="#fff" transform="translate(5.263 4.737)" d="M0 0h10v10H0z"/></clipPath></defs></symbol><symbol  viewBox="0 0 22 22" id="icon-cross" xmlns="http://www.w3.org/2000/svg"><path d="m12.215 11 9.533-9.533A.86.86 0 0 0 20.533.252L11 9.785 1.467.252A.86.86 0 1 0 .252 1.467L9.785 11 .252 20.533a.86.86 0 1 0 1.215 1.215L11 12.215l9.533 9.533a.857.857 0 0 0 1.215 0 .86.86 0 0 0 0-1.215L12.215 11Z"/></symbol><symbol fill="none" viewBox="0 0 20 16" id="icon-email" xmlns="http://www.w3.org/2000/svg"><path fill-rule="evenodd" clip-rule="evenodd" d="M20 2c0-1.1-.9-2-2-2H2C.9 0 0 .9 0 2v12c0 1.1.9 2 2 2h16c1.1 0 2-.9 2-2V2Zm-2 0-8 5-8-5h16Zm0 12H2V4l8 5 8-5v10Z" fill="#FF7900"/></symbol><symbol viewBox="0 0 10 16" id="icon-facebook" xmlns="http://www.w3.org/2000/svg"><path d="M9 .003 6.924 0c-2.33 0-3.837 1.546-3.837 3.938v1.815H1.001a.326.326 0 0 0-.326.327v2.63c0 .18.146.326.326.326h2.086v6.638c0 .18.146.326.326.326h2.722c.18 0 .327-.146.327-.326V9.036H8.9c.18 0 .326-.146.326-.326V6.08a.327.327 0 0 0-.325-.327h-2.44V4.214c0-.74.176-1.115 1.14-1.115h1.397c.18 0 .326-.147.326-.327V.33A.326.326 0 0 0 9 .003Z"/></symbol><symbol fill="none" viewBox="0 0 38 33" id="icon-heart" xmlns="http://www.w3.org/2000/svg"><path fill-rule="evenodd" clip-rule="evenodd" d="M34.859 3.063c-4.188-4.083-11.003-4.083-15.192 0-.232.226-.454.465-.667.714-.212-.25-.434-.488-.667-.715-4.188-4.083-11.003-4.083-15.192 0a10.3 10.3 0 0 0 0 14.81l15.274 14.892A.835.835 0 0 0 19 33a.835.835 0 0 0 .584-.236l15.274-14.891a10.298 10.298 0 0 0 0-14.81Z" fill="#FF7900"/></symbol><symbol fill="none" viewBox="0 0 18 18" id="icon-instagram" xmlns="http://www.w3.org/2000/svg"><g clip-path="url(#ha)" fill="#FF7900"><path d="M.054 5.29c.044-.96.196-1.614.419-2.186A4.41 4.41 0 0 1 1.51 1.51c.45-.458.993-.813 1.594-1.039C3.677.25 4.33.098 5.289.054 6.25.01 6.556 0 9 0s2.75.01 3.71.054c.959.044 1.613.196 2.185.419.6.225 1.145.58 1.594 1.038.458.45.813.993 1.039 1.594.222.572.374 1.226.418 2.184C17.99 6.25 18 6.556 18 9c0 2.445-.01 2.752-.054 3.712-.044.957-.196 1.612-.419 2.184-.226.6-.58 1.145-1.038 1.594-.45.458-.993.812-1.594 1.038-.572.223-1.226.375-2.184.419C11.75 17.99 11.444 18 9 18s-2.751-.01-3.71-.054c-.959-.044-1.613-.196-2.185-.419a4.601 4.601 0 0 1-2.632-2.632C.25 14.323.098 13.67.054 12.711.01 11.75 0 11.444 0 9s.01-2.75.054-3.71Zm1.62 7.347c.04.877.187 1.354.31 1.671a2.98 2.98 0 0 0 1.708 1.708c.317.123.794.27 1.671.31.95.043 1.234.052 3.637.052s2.688-.009 3.637-.052c.877-.04 1.354-.187 1.671-.31.39-.144.745-.374 1.035-.673a2.78 2.78 0 0 0 .673-1.035c.123-.317.27-.794.31-1.671.043-.95.052-1.234.052-3.637s-.009-2.688-.052-3.637c-.04-.877-.187-1.354-.31-1.67a2.79 2.79 0 0 0-.673-1.036 2.786 2.786 0 0 0-1.035-.673c-.317-.123-.794-.27-1.671-.31-.95-.043-1.234-.052-3.637-.052s-2.688.009-3.637.052c-.877.04-1.354.187-1.67.31a2.79 2.79 0 0 0-1.036.673 2.78 2.78 0 0 0-.673 1.035c-.123.317-.27.794-.31 1.671-.043.95-.052 1.234-.052 3.637s.009 2.688.052 3.637Z"/><path d="M9 4.378a4.622 4.622 0 1 1 0 9.243 4.622 4.622 0 0 1 0-9.243ZM9 12a3 3 0 1 0 0-6 3 3 0 0 0 0 6ZM3.116 4.196a1.08 1.08 0 1 0 2.16 0 1.08 1.08 0 0 0-2.16 0Z"/></g><defs><clipPath id="ha"><path fill="#fff" transform="matrix(-1 0 0 1 18 0)" d="M0 0h18v18H0z"/></clipPath></defs></symbol><symbol  viewBox="0 0 14 20" id="icon-location" xmlns="http://www.w3.org/2000/svg"><path fill-rule="evenodd" clip-rule="evenodd" d="M7 0c3.87 0 7 3.13 7 7 0 5.25-7 13-7 13S0 12.25 0 7c0-3.87 3.13-7 7-7ZM2 7c0 2.85 2.92 7.21 5 9.88 2.12-2.69 5-7 5-9.88 0-2.76-2.24-5-5-5S2 4.24 2 7Zm5 2.5a2.5 2.5 0 1 1 0-5 2.5 2.5 0 0 1 0 5Z" /></symbol><symbol fill="none" viewBox="0 0 18 18" id="icon-phone" xmlns="http://www.w3.org/2000/svg"><path fill-rule="evenodd" clip-rule="evenodd" d="M3.54 2c.06.89.21 1.76.45 2.59l-1.2 1.2c-.41-1.2-.67-2.47-.76-3.79h1.51Zm9.86 12.02c.85.24 1.72.39 2.6.45v1.49c-1.32-.09-2.59-.35-3.8-.75l1.2-1.19ZM4.5 0H1C.45 0 0 .45 0 1c0 9.39 7.61 17 17 17 .55 0 1-.45 1-1v-3.49c0-.55-.45-1-1-1-1.24 0-2.45-.2-3.57-.57a.84.84 0 0 0-.31-.05c-.26 0-.51.1-.71.29l-2.2 2.2a15.149 15.149 0 0 1-6.59-6.59l2.2-2.2c.28-.28.36-.67.25-1.02A11.36 11.36 0 0 1 5.5 1c0-.55-.45-1-1-1Z" fill="#FF7900"/></symbol><symbol  viewBox="0 0 17 16" id="icon-phone-fill" xmlns="http://www.w3.org/2000/svg"><path d="m12.184 11.1-.554.78c-.11.157-.257.29-.45.337-.63.157-2.304.228-4.854-2.171-2.549-2.4-2.474-3.976-2.307-4.57.05-.18.192-.318.358-.422l.83-.52c.618-.389.785-1.175.373-1.756L4.012.564C3.652.056 2.96-.138 2.363.102l-.707.286A2.416 2.416 0 0 0 .419 1.486C.2 1.896.03 2.33.008 2.789c-.072 1.447.265 5.012 4.484 8.983 4.22 3.971 8.007 4.289 9.545 4.22.488-.021.948-.18 1.384-.386a2.392 2.392 0 0 0 1.167-1.164l.303-.666c.256-.561.05-1.214-.49-1.552l-2.352-1.476c-.618-.388-1.453-.23-1.865.351Z" /></symbol><symbol fill="none" viewBox="0 0 96 100" id="icon-socials" xmlns="http://www.w3.org/2000/svg"><rect x="2" width="92" height="94" rx="44" fill="#64D06F" fill-opacity=".3"/><g filter="url(#la)"><rect x="11" y="9" width="74" height="76" rx="37" fill="#64D06F"/></g><g clip-path="url(#lb)"><path d="m64.97 62.254-2.744-8.236a16.703 16.703 0 0 0 2.207-8.301C64.433 36.499 56.935 29 47.717 29S31 36.499 31 45.717s7.5 16.716 16.717 16.716c2.63 0 5.245-.627 7.58-1.818l8.992 2.366a.564.564 0 0 0 .682-.727ZM40.068 48.267A2.269 2.269 0 0 1 37.8 46a2.269 2.269 0 0 1 2.267-2.267A2.269 2.269 0 0 1 42.333 46a2.269 2.269 0 0 1-2.266 2.267Zm7.366 0A2.269 2.269 0 0 1 45.167 46a2.269 2.269 0 0 1 2.266-2.267A2.269 2.269 0 0 1 49.7 46a2.269 2.269 0 0 1-2.267 2.267Zm7.367 0A2.269 2.269 0 0 1 52.533 46a2.269 2.269 0 0 1 2.267-2.267A2.269 2.269 0 0 1 57.067 46a2.269 2.269 0 0 1-2.267 2.267Z" fill="#fff"/></g><defs><clipPath id="lb"><path fill="#fff" transform="translate(31 29)" d="M0 0h34v34H0z"/></clipPath><filter id="la" x="0" y="2" width="96" height="98" filterUnits="userSpaceOnUse" color-interpolation-filters="sRGB"><feFlood flood-opacity="0" result="BackgroundImageFix"/><feColorMatrix in="SourceAlpha" values="0 0 0 0 0 0 0 0 0 0 0 0 0 0 0 0 0 0 127 0" result="hardAlpha"/><feOffset dy="4"/><feGaussianBlur stdDeviation="5.5"/><feComposite in2="hardAlpha" operator="out"/><feColorMatrix values="0 0 0 0 0.392157 0 0 0 0 0.815686 0 0 0 0 0.435294 0 0 0 0.5 0"/><feBlend in2="BackgroundImageFix" result="effect1_dropShadow_79_3095"/><feBlend in="SourceGraphic" in2="effect1_dropShadow_79_3095" result="shape"/></filter></defs></symbol><symbol fill="none" viewBox="0 0 26 25" id="icon-telegram" xmlns="http://www.w3.org/2000/svg"><path d="m10.202 16.477-.43 6.98c.615 0 .882-.305 1.201-.672l2.885-3.18 5.979 5.05c1.096.705 1.868.334 2.164-1.163l3.924-21.215.001-.002c.348-1.87-.586-2.6-1.654-2.142L1.207 10.322c-1.574.705-1.55 1.717-.268 2.176l5.897 2.116 13.697-9.889c.645-.492 1.23-.22.749.273l-11.08 11.479Z" fill="#fff"/></symbol><symbol fill="none" viewBox="0 0 33 36" id="icon-viber" xmlns="http://www.w3.org/2000/svg"><path d="M31.735 20.267c1.044-8.784-.5-14.33-3.287-16.837l.001-.002C23.951-.855 8.762-1.489 3.381 3.621.965 6.12.114 9.788.021 14.33c-.094 4.542-.204 13.052 7.725 15.36h.008l-.008 3.526s-.053 1.428.859 1.716c1.043.338 1.516-.325 4.761-4.202 5.428.47 9.596-.608 10.07-.765 1.096-.367 7.297-1.188 8.3-9.698ZM13.901 28.25s-3.435 4.284-4.503 5.396c-.35.361-.733.328-.728-.39 0-.47.027-5.852.027-5.852-6.723-1.927-6.327-9.173-6.254-12.964.073-3.792.767-6.898 2.813-8.99 4.72-4.426 18.037-3.436 21.43-.247 4.147 3.677 2.671 14.065 2.68 14.42-.853 7.103-5.878 7.553-6.802 7.86-.395.132-4.06 1.075-8.663.767Z" fill="#fff"/><path d="M15.801 6.282c-.56 0-.56.874 0 .881 4.354.034 7.939 3.068 7.978 8.634 0 .587.86.58.853-.007h-.002c-.046-5.997-3.96-9.475-8.829-9.508Z" fill="#fff"/><path d="M21.528 14.875c-.013.58.845.607.853.02.07-3.307-1.968-6.03-5.8-6.318-.56-.04-.619.841-.06.882 3.324.252 5.074 2.52 5.007 5.416Zm-.918 3.761c-.72-.417-1.454-.157-1.757.252l-.634.82c-.322.418-.924.362-.924.362-4.392-1.161-5.567-5.758-5.567-5.758s-.054-.622.348-.956l.793-.656c.397-.315.647-1.072.244-1.817-1.079-1.949-1.803-2.62-2.172-3.137-.388-.485-.97-.594-1.577-.266h-.013c-1.26.737-2.64 2.117-2.2 3.538.754 1.498 2.139 6.274 6.552 9.883 2.074 1.707 5.356 3.456 6.75 3.86l.012.02c1.373.457 2.708-.977 3.42-2.275v-.01c.317-.629.212-1.223-.25-1.612-.819-.8-2.055-1.68-3.026-2.248Z" fill="#fff"/><path d="M17.182 11.83c1.4.082 2.08.814 2.152 2.316.027.588.88.547.853-.04-.093-1.962-1.116-3.055-2.959-3.157-.56-.034-.613.848-.046.882Z" fill="#fff"/></symbol></svg>