<svg width="80" height="76" fill="none" xmlns="http://www.w3.org/2000/svg"><path d="M9.666 43.592c.191-1.29.286-2.628.524-3.919.953-5.545 3.143-10.564 6.524-15.057.476-.621 1-.717 1.476-.382.476.382.524.956.048 1.53a33.608 33.608 0 0 0-4.952 9.416c-.143.478-.048.67.285.956 1.429 1.1 2.81 2.15 4.19 3.298 2.525 2.103 3.953 4.828 4 8.174.048 5.544 0 11.137.048 16.681v.86c.286 0 .524.049.762.049 1.572-.048 3.143.047 4.667-.096 2.286-.24 4-2.295 4.047-4.589.048-3.059 0-6.07 0-9.13v-.669c.096-.525.43-.86 1-.812.572.048.858.334.905.908v9.273c0 4.11-2.904 7.074-7.047 7.074h-9.477c-3.57 0-6.142-2.15-6.904-5.688 0-.095-.096-.191-.096-.287v-17.59Zm10.096 8.795v-2.58h-1.667c-.81 0-1.19-.335-1.19-.957 0-.621.38-.956 1.19-1.004h1.714v-.382c0-.191 0-.382-.047-.573-.286-1.865-.953-3.633-2.334-4.924-1.523-1.434-3.19-2.724-4.857-4.11-.095.286-.143.382-.19.525-.286 2.104-.715 4.207-.762 6.31-.095 5.258-.048 10.468-.048 15.726 0 2.198 1.429 4.158 3.572 4.588 1.476.287 3.047.24 4.571.287V58.84h-1.857c-.667 0-1.048-.43-1.048-1.004 0-.573.381-.956 1.096-.956h1.857v-2.15c0-.144-.048-.24-.048-.43h-1.762c-.714 0-1.095-.335-1.095-.909-.048-.621.38-1.004 1.095-1.004h1.81Z" fill="#FF7900"/><path d="M36.952 18.546c1.477 1.912 1.429 3.872.381 5.88-1.762 3.345-3.095 6.834-3.619 10.61-.285 2.104-.38 4.302-.476 6.453-.095 1.769 0 3.585 0 5.354 0 .717-.38 1.147-1 1.1-.571 0-.952-.431-.952-1.1.047-3.442 0-6.883.238-10.277.285-3.92 1.476-7.6 3.143-11.185.38-.812.81-1.625 1.19-2.485.667-1.482.143-3.012-1.333-3.729-1.476-.717-3-1.434-4.524-2.15-1.095-.526-2.143-.383-3.048.382-2 1.72-3.952 3.441-5.952 5.162-.524.478-1.095.526-1.476.143-.429-.43-.429-1.051.095-1.481 2.143-1.912 4.286-3.824 6.524-5.593 1.476-1.147 3.19-1.1 4.905-.287.095-.143.238-.239.333-.382 1.048-1.386 2-2.772 3.095-4.11 3.81-4.494 8.62-6.167 14.286-4.637 5.619 1.53 8.905 5.497 9.905 11.28.333 2.008 0 4.015-.381 6.023-.62 3.25-.857 6.5-.81 9.799v4.254c.715.334 1.476.573 2.143.956 4.19 2.198 6.572 7.026 5.714 11.615-.904 4.923-4.714 8.604-9.571 9.13-6.81.812-12.714-4.685-12.286-11.568.286-4.54 2.667-7.743 6.81-9.607.476-.192.619-.43.619-.956.095-3.585.143-7.218.333-10.803.143-2.055.62-4.063.905-6.118.38-3.06-1.286-5.927-4.048-7.218C45.381 11.711 42 12.332 40 14.58c-1.095 1.242-2.048 2.628-3.048 3.967Zm8.477 29.826c0 4.971 4.095 9.082 9.047 9.082 5 0 9.095-4.11 9.095-9.13 0-5.018-4.095-9.081-9.095-9.081-4.952-.048-9.047 4.063-9.047 9.13ZM55.57 37.283v-1.147c-.095-4.923.286-9.799 1.096-14.674 1.523-8.843-6.81-15.965-15.238-13.193-4.096 1.339-6.19 4.78-8.524 7.983.857.382 1.619.764 2.428 1.147 1-1.29 1.905-2.581 2.858-3.776 2.285-2.773 6.095-3.92 9.57-2.868 3.477 1.051 6.096 4.158 6.287 7.743.095 1.434-.143 2.916-.381 4.302-.81 4.684-.858 9.369-.81 14.1 0 .144.048.24.048.383h2.666Zm7.954 32.981h-.762c-.572-.048-.953-.382-1-.908 0-.526.285-.956.904-1.004.62-.095 1.191-.048 1.81-.143 5.524-.86 9.62-5.545 9.81-11.137 0-.813.38-1.29 1-1.243.619 0 .952.478.952 1.29-.048 6.453-5.143 12.19-11.524 13.05-.428 0-.905.047-1.19.095Z" fill="#FF7900"/><path d="M27.095 33.268c0 2.15-1.714 3.92-3.857 3.92-2.143 0-3.857-1.721-3.857-3.825 0-2.15 1.666-3.919 3.81-3.919 2.19-.096 3.904 1.625 3.904 3.824Zm-5.762 0c0 1.051.857 1.912 1.905 1.912s1.952-.86 1.905-1.96a1.914 1.914 0 0 0-1.905-1.912c-1.048.048-1.905.908-1.905 1.96Zm50.905 23.995c-.19 4.875-4.333 8.938-9.238 9.034-.762 0-1.19-.335-1.19-.956s.38-.956 1.095-1.004c4.238-.287 7.095-3.155 7.38-7.36.048-.766.43-1.196 1-1.196.667 0 1 .526.953 1.482ZM31.904 24.282c0 1.864-1.476 3.298-3.333 3.298-1.81 0-3.238-1.482-3.238-3.298 0-1.817 1.476-3.346 3.286-3.346s3.285 1.482 3.285 3.346Zm-1.952-.048c0-.717-.619-1.338-1.333-1.338-.762 0-1.334.621-1.334 1.386 0 .717.62 1.338 1.334 1.338.762 0 1.38-.621 1.333-1.386Z" fill="#FF7900"/><path d="M68.19 57.072c-.095 2.772-2.524 5.162-5.286 5.162-.619 0-1.047-.335-1.095-.86-.047-.574.286-.956.953-1.052 2.238-.335 3.19-1.29 3.476-3.49.095-.62.524-1.05 1.047-1.003.62 0 .953.43.905 1.243Zm-9.095-8.747c0 2.58-2.048 4.684-4.619 4.636-2.524 0-4.62-2.103-4.62-4.636 0-2.534 2.049-4.59 4.572-4.59 2.62-.047 4.667 2.008 4.667 4.59Zm-4.571-2.677c-1.477 0-2.667 1.147-2.667 2.629-.048 1.481 1.19 2.724 2.667 2.724 1.476 0 2.666-1.195 2.666-2.724-.047-1.434-1.19-2.63-2.666-2.63Z" fill="#FF7900"/></svg>