<svg width="70" height="66" fill="none" xmlns="http://www.w3.org/2000/svg"><path d="M33.411 65.635c-1.256-.33-2.62-.55-3.822-.99-5.134-1.98-8.629-7.097-8.738-12.598-.054-2.036 0-4.071 0-6.107v-.77c-1.966.165-3.877.22-5.788.495-.547.055-.984.605-1.475.936-.164.11-.273.385-.382.605-.656 1.155-1.857 1.705-3.113 1.43-1.256-.33-2.075-1.375-2.075-2.75V44.62c.054-.605.437-.99.928-.99.546 0 .874.385.929.99v1.32c0 .44.218.77.655.88.437.11.764-.054.983-.44.928-1.815 2.403-2.585 4.369-2.695 2.73-.11 5.406-.33 8.136-.55 2.13-.165 3.66-1.926 3.66-4.071 0-2.09-1.53-3.851-3.66-4.016-2.785-.22-5.57-.44-8.41-.605-1.856-.11-3.221-.935-4.04-2.586-.219-.44-.547-.715-1.038-.55-.492.11-.71.495-.655.99V40c0 .33-.273.77-.547.935-.218.165-.71.11-.873-.11-.219-.22-.383-.66-.383-.99-.054-2.53 0-5.116 0-7.647 0-.22.055-.44.055-.66a2.616 2.616 0 0 1 2.24-2.145c1.146-.165 2.183.22 2.73 1.265.655 1.375 1.693 1.925 3.167 1.925 1.474.055 3.003.165 4.587.275V20.69c0-9.793 6.826-17.824 16.492-19.145C43.187.72 48.32 2.481 52.69 6.386c.546.496.6 1.046.273 1.486-.383.44-.929.385-1.475-.055-2.566-2.31-5.515-3.796-8.901-4.346-8.574-1.376-16.875 3.96-19.168 12.378-.382 1.43-.6 3.025-.6 4.51-.11 4.016-.056 8.087-.056 12.103v.385c.983.166 1.912.22 2.786.496.764.275 1.201.275 1.856-.33.929-.936 2.185-1.266 3.495-1.32 1.803-.056 3.66 0 5.461-.166 1.803-.165 3.386-.935 4.642-2.31 1.912-2.09 1.966-5.006.055-7.097-1.475-1.595-3.331-2.366-5.407-2.42-2.402-.11-4.805 0-7.372 0a46.623 46.623 0 0 0-.437 2.915v.44c-.054.66-.437.99-.983.99s-.983-.44-.873-1.045c.218-1.54.382-3.19.873-4.676 1.802-5.116 5.243-8.637 10.54-9.957 6.116-1.485 12.069 1.87 14.417 7.867 2.621 6.601.273 14.413-5.625 18.594-1.092.77-1.966 1.76-2.239 3.136a7.38 7.38 0 0 0-.164 1.54v7.097c-.054 4.62-3.112 8.306-7.645 8.967-3.55.55-6.39-.826-8.52-3.686-.436-.605-.436-1.155.055-1.485.492-.33 1.038-.22 1.475.44 2.184 2.915 5.788 3.85 8.901 2.2 2.403-1.265 3.714-3.356 3.823-6.051.11-2.42.055-4.841 0-7.262-.055-2.696 1.038-4.841 3.277-6.381 4.915-3.521 7.044-9.958 5.242-15.569-2.457-7.592-10.867-10.232-17.147-5.336-1.802 1.43-3.222 3.19-4.205 5.391.273 0 .491.055.71.055 2.239.055 4.478-.11 6.662.165 3.44.385 6.17 2.036 7.536 5.446 1.147 2.861.055 6.052-2.621 8.087a9.566 9.566 0 0 1-4.806 1.98c-.491.056-.546.22-.546.66v6.107c0 3.136-2.02 5.171-5.133 5.171h-1.639c-1.037.055-1.965-.22-2.675-1.045-.601.165-1.202.385-1.802.495-.601.11-1.257.11-1.857.165 0 .055-.055.055-.055.11.055 2.971-.164 5.997.273 8.857.874 5.722 6.171 9.792 12.069 9.682 5.68-.11 10.649-4.566 11.413-10.177.328-2.475.11-4.95-.273-7.427-.655-4.786.765-8.911 4.315-12.157 2.62-2.42 4.696-5.171 5.679-8.692 1.365-4.841.764-9.407-1.748-13.698a1.15 1.15 0 0 0-.218-.33c-.328-.606-.273-1.156.218-1.43.492-.276.983-.166 1.366.44.983 1.54 1.747 3.135 2.184 4.896 1.912 7.646.11 14.303-5.68 19.639-3.112 2.916-4.696 6.326-4.368 10.562.11 1.65.382 3.301.491 5.007.164 2.53-.163 5.006-1.365 7.316-2.239 4.456-5.843 7.097-10.813 7.812-.109 0-.218.055-.327.11H33.41ZM28.06 34.938c2.075 2.806 2.02 5.556-.164 8.362.382.11.655.22.983.22.655.055 1.31 0 1.911 0 2.02 0 3.222-1.155 3.222-3.246v-6.106c0-.165 0-.385-.054-.66-2.021.33-4.26-.55-5.898 1.43Z" fill="#FF7900"/></svg>