<svg width="75" height="71" fill="none" xmlns="http://www.w3.org/2000/svg"><path d="M71.527 23.017c-.178.762-.297 1.583-.475 2.345-1.664 6.449-7.605 11.021-14.318 11.021-.475 0-.772.176-1.069.47-6.654 7.386-6.535 18.583.357 25.735.059.117.178.175.237.293.475.527.535 1.055.06 1.465-.416.41-.951.352-1.486-.234-.416-.41-.772-.82-1.188-1.29-6.297-7.504-6.475-18.466-.356-26.087.119-.176.297-.352.416-.528-1.01-.351-2.02-.645-2.97-1.055-.951-.41-1.843-.938-2.852-1.465-.12.703-.238 1.465-.357 2.169-.772 3.869-2.495 7.269-5.347 9.965-2.792 2.639-4.158 5.804-4.396 9.556-.119 1.348-.594 2.638-.95 3.986-.178.587-.713.763-1.188.587-.476-.176-.773-.645-.595-1.114.773-1.817.832-3.752 1.13-5.687.474-3.048 1.781-5.745 4.039-7.972 3.03-2.873 4.871-6.332 5.584-10.435 0-.117 0-.235.06-.352.356-1.465 0-2.58-1.01-3.81-2.377-2.756-3.268-6.097-3.149-9.673 0-.235-.119-.528-.297-.762-4.812-5.394-12.654-7.387-19.545-4.983l-.535.176c-.594.176-1.01 0-1.247-.528-.179-.469 0-.997.594-1.173 1.247-.41 2.495-.82 3.742-.996 6.654-1.055 12.417.762 17.348 5.276l.178.176h.119c.059-.235.118-.41.237-.645 1.96-6.449 8.317-10.845 15.03-10.435 7.01.41 12.714 5.393 13.902 12.194.06.351.119.762.238 1.113.059.88.059 1.818.059 2.697Zm-1.842-1.348c0-7.094-5.881-12.839-13.07-12.839-7.128 0-13.01 5.804-13.01 12.839s5.882 12.897 13.01 12.897c7.189-.059 13.07-5.804 13.07-12.897ZM7.96 42.773c0-3.635-.059-7.27 0-10.904.179-6.566 2.97-11.842 8.318-15.828.059-.059.118-.117.178-.117.594-.41 1.129-.41 1.485.058.357.47.178.997-.416 1.466-.416.293-.831.586-1.247.938-4.1 3.459-6.357 7.855-6.416 13.19-.12 7.504-.06 15.008 0 22.57.059 7.152 6.356 13.014 13.604 12.721 3.683-.117 6.772-1.583 9.268-4.28.118-.117.178-.234.297-.293.416-.351.89-.41 1.307-.058.416.352.475.88.06 1.29-.773.762-1.546 1.582-2.437 2.227-9.03 6.625-21.802 1.525-23.703-9.497-.179-.879-.238-1.817-.238-2.755-.119-3.576-.06-7.152-.06-10.728Z" fill="#FF7900"/><path d="M18.12 39.021c1.306-.762 2.613-1.172 4.04-1.172 3.742 0 6.95 2.755 7.485 6.39.534 3.576-1.783 7.093-5.347 8.09-.594.175-1.188.234-1.842.293-.713.058-1.188-.293-1.188-.88-.06-.586.356-.938 1.07-.996 2.791-.176 4.93-1.993 5.405-4.631.416-2.287-.772-4.632-2.851-5.804-2.08-1.114-4.693-.88-6.416.703-.238.176-.357.528-.357.821-.06 1.7 0 3.342 0 5.042 0 .762-.356 1.23-.95 1.172-.594 0-.95-.469-.95-1.23V31.985c.059-5.979 4.692-11.02 10.633-11.49 6.06-.469 11.407 3.518 12.535 9.439.12.645.12 1.23.179 1.876 0 .645-.357.996-.892 1.055-.594 0-.95-.352-.95-1.055a9.09 9.09 0 0 0-.832-3.752c-1.841-4.163-6.416-6.507-10.871-5.628-4.575.88-7.842 4.807-7.902 9.38v7.21Zm37.07 10.963c.06-4.397 1.426-7.797 4.218-10.67.475-.527 1.07-.527 1.485-.117.416.41.357.938-.178 1.466-1.545 1.583-2.614 3.4-3.149 5.452-1.129 4.514-.178 8.559 2.97 12.076l.298.293c.416.469.416.997 0 1.348-.416.352-.891.352-1.367-.117-2.02-1.993-3.326-4.397-3.92-7.152-.238-.997-.298-2.052-.357-2.58Z" fill="#FF7900"/><path d="M64.636 43.184c.297.234.654.351.772.644.12.293.06.704-.059.938-.119.352-.475.587-.713.88-1.901 2.52-1.723 5.862.357 8.207.653.703.712 1.23.237 1.641-.475.41-1.01.293-1.663-.41-2.852-3.224-2.792-8.149.178-11.197.238-.293.535-.469.891-.703ZM52.932 25.303h-3.446c-1.485 0-2.079-.586-2.079-2.051v-3.225c0-1.407.654-1.993 2.08-1.993h2.792c.178 0 .416 0 .653-.058V14.81c0-1.7.535-2.228 2.258-2.228h3.327c1.128 0 1.782.645 1.782 1.759v3.635h3.327c1.604 0 2.138.586 2.138 2.169v3.224c0 1.29-.653 1.876-1.96 1.934h-3.565v3.225c0 1.7-.534 2.227-2.257 2.227h-3.208c-1.248 0-1.842-.644-1.901-1.875.06-1.173.06-2.287.06-3.576Zm10.99-5.451h-3.801c-.951 0-1.605-.645-1.664-1.642v-3.752h-3.564c0 .059-.06.117-.06.176v3.224c0 1.407-.594 1.994-2.02 1.994h-3.445v3.634h3.267c1.664 0 2.198.528 2.198 2.17v3.224h3.684c0-.997.059-1.935 0-2.873-.12-1.993.594-2.638 2.554-2.52.95.058 1.901 0 2.911 0-.06-1.232-.06-2.404-.06-3.635Z" fill="#FF7900"/></svg>