<svg width="71" height="75" fill="none" xmlns="http://www.w3.org/2000/svg"><path d="M41.339 6.18c1.401.518 2.008 1.603 2.102 3.065.093 1.651.373 3.255.56 4.906.047.425.187.66.608.802.654.236 1.26.472 1.915.802.373.188.654.141.98-.142 1.402-1.132 2.803-2.217 4.205-3.349 1.4-1.132 2.709-1.038 3.97.236l5.558 5.613c1.215 1.274 1.308 2.595.234 3.963-1.074 1.415-2.195 2.83-3.316 4.245-.28.33-.327.613-.14 1.037.28.614.56 1.227.747 1.84.14.378.374.566.794.613 1.822.189 3.597.425 5.418.66 1.635.19 2.57 1.227 2.57 2.925v8.066c0 1.651-.888 2.689-2.523 2.878-1.822.235-3.597.424-5.418.66-.42.047-.701.236-.841.66-.234.614-.467 1.274-.748 1.84-.186.377-.14.66.094.99 1.121 1.416 2.195 2.83 3.316 4.246 1.121 1.462 1.075 2.736-.233 4.056l-5.512 5.566c-1.261 1.274-2.57 1.321-3.924.236-1.401-1.132-2.849-2.217-4.25-3.349-.327-.283-.608-.283-.981-.094a23.31 23.31 0 0 1-1.915.802c-.374.141-.514.377-.56.755-.188 1.792-.421 3.585-.608 5.377-.187 1.745-1.215 2.641-2.943 2.641h-7.94c-1.682 0-2.71-.943-2.897-2.641-.187-1.792-.42-3.585-.607-5.377-.047-.425-.234-.66-.607-.802-.654-.236-1.261-.52-1.915-.802-.374-.189-.608-.095-.935.141-1.4 1.132-2.802 2.264-4.25 3.35-1.402 1.084-2.71 1.037-3.924-.236l-5.605-5.66c-1.215-1.227-1.261-2.548-.234-3.916a262.3 262.3 0 0 1 3.317-4.245c.28-.378.373-.66.14-1.085-.28-.613-.56-1.227-.748-1.84-.14-.424-.42-.566-.794-.613-1.635-.189-3.223-.472-4.858-.566-1.494-.094-2.522-.708-3.082-2.123v-9.764c.607-1.745 2.008-2.075 3.596-2.217a136.72 136.72 0 0 0 4.391-.519c.374-.047.607-.235.748-.613.233-.613.467-1.274.747-1.84.233-.424.14-.754-.14-1.084-1.121-1.368-2.196-2.783-3.27-4.198-1.121-1.416-1.028-2.736.233-4.01l1.215-1.226c.467-.425.934-.472 1.355-.095.373.378.373.896-.047 1.368-.42.425-.84.85-1.215 1.274-.56.566-.56.849-.093 1.462 1.121 1.415 2.195 2.877 3.316 4.293.748.943.888 1.886.374 2.924-.28.566-.514 1.18-.747 1.793-.374 1.037-1.121 1.603-2.196 1.745-1.775.189-3.55.424-5.325.66-.84.094-1.074.33-1.074 1.18v7.924c0 .849.234 1.085 1.074 1.18 1.775.188 3.55.424 5.325.66 1.075.141 1.822.66 2.196 1.745.233.707.56 1.368.84 2.028.374.896.28 1.745-.326 2.5-1.122 1.462-2.243 2.877-3.364 4.34-.607.802-.607.99.094 1.698l5.465 5.519c.607.613.887.66 1.541.094 1.448-1.132 2.85-2.264 4.298-3.396.84-.708 1.728-.802 2.709-.33.7.33 1.448.613 2.195.896.748.33 1.262.896 1.355 1.745.233 1.887.467 3.82.7 5.708.094.943.328 1.132 1.215 1.132h7.8c.842 0 1.075-.236 1.169-1.085.186-1.793.42-3.585.654-5.378.14-1.084.653-1.84 1.728-2.216.654-.236 1.261-.52 1.915-.802.98-.472 1.868-.33 2.71.33 1.4 1.132 2.802 2.217 4.203 3.349.794.613 1.028.613 1.682-.094l5.418-5.472c.7-.708.7-.896.093-1.698a256.19 256.19 0 0 0-3.27-4.198c-.7-.897-.84-1.793-.326-2.83.28-.614.56-1.227.747-1.84.374-1.038 1.121-1.604 2.195-1.745 1.775-.19 3.55-.425 5.325-.66.841-.095 1.075-.331 1.075-1.18v-7.925c0-.849-.234-1.084-1.075-1.179-1.775-.189-3.55-.424-5.325-.66-1.074-.142-1.821-.66-2.195-1.745-.233-.708-.56-1.368-.84-2.029-.374-.896-.28-1.745.326-2.5 1.121-1.462 2.29-2.924 3.41-4.387.56-.754.56-.99-.093-1.65l-5.465-5.52c-.654-.66-.888-.66-1.588-.094a261.853 261.853 0 0 0-4.205 3.35c-.887.707-1.774.848-2.802.377-.654-.33-1.355-.566-2.055-.85-.794-.33-1.308-.943-1.448-1.792-.234-1.887-.468-3.82-.701-5.707-.093-.85-.327-1.085-1.168-1.085h-7.847c-.841 0-1.074.236-1.168 1.085-.187 1.792-.42 3.585-.654 5.377-.14 1.085-.654 1.84-1.728 2.217-.7.236-1.355.566-2.009.849-.887.377-1.728.283-2.475-.33-1.448-1.132-2.896-2.312-4.345-3.444-.747-.566-.98-.566-1.634.095-.374.377-.748.802-1.168 1.179-.42.425-.981.425-1.355.047-.373-.377-.373-.896.094-1.368.42-.471.887-.896 1.308-1.32 1.12-1.085 2.475-1.18 3.69-.19 1.401 1.133 2.85 2.218 4.25 3.35.374.33.701.424 1.215.141.56-.283 1.168-.518 1.775-.754.374-.142.56-.378.607-.755.187-1.793.42-3.585.607-5.377.14-1.368.841-2.17 2.056-2.642 3.036.047 6.259.047 9.482.047Z" fill="#FF7900"/><path d="M32.464 51.368v-1.51c0-.566.327-.896.84-.943.514-.047.888.33.935.896.047.425.047.897 0 1.321-.047.566.187.755.654.708h.607c0-.236.047-.425.047-.66v-4.2c0-.755.327-1.132.887-1.132s.888.377.888 1.132v4.859c.187 0 .327 0 .514.047.607.047.84-.189.794-.85-.047-2.405 0-4.763 0-7.17v-.565h-4.391c0 .613.047 1.32 0 1.981-.047.33-.14.708-.374.896-.187.189-.654.236-.887.095-.234-.142-.514-.52-.514-.802-.093-.802-.047-1.651 0-2.453 0-.472-.14-.708-.56-.944-5.793-3.349-6.12-11.745-.561-15.566.607-.424 1.261-.66 1.962-.283.7.378.84 1.038.84 1.746v4.48c0 .284.14.567.327.803.608.66 1.215 1.273 1.869 1.98a98.932 98.932 0 0 0 2.195-2.169c.14-.142.14-.425.14-.613v-4.529c0-.754.187-1.32.841-1.698.654-.33 1.261-.188 1.869.236 5.605 3.727 5.371 12.17-.42 15.566-.468.283-.608.52-.561 1.038.046 2.453 0 4.953 0 7.406v.754c.327-.094.56-.141.794-.235 8.875-3.16 12.331-14.01 7.053-21.84a3.932 3.932 0 0 1-.374-.566c-.187-.472-.093-.85.327-1.132.374-.283.748-.236 1.121.094.14.095.187.236.28.377 6.587 9.293 1.589 22.69-9.482 25.284-9.155 2.122-18.03-3.727-19.711-13.066-1.635-8.963 4.67-17.736 13.639-18.963 4.39-.613 8.408.425 11.958 3.066.28.236.56.613.56.99.047.614-.654.991-1.214.756a3.138 3.138 0 0 1-.514-.33c-8.875-6.557-21.44-1.133-22.795 9.905-.84 6.792 3.317 13.443 9.763 15.519.28.236.42.236.654.283Zm8.128-23.066c0 1.65.046 3.16-.047 4.717 0 .472-.234 1.038-.56 1.415-.748.849-1.589 1.604-2.43 2.358-.747.708-1.588.708-2.382-.047-.56-.566-1.121-1.179-1.728-1.698-.888-.755-1.215-1.604-1.168-2.783.093-1.273 0-2.594 0-3.915-2.242 1.132-3.643 4.623-2.99 7.547.701 3.208 3.55 5.66 6.82 5.755 3.317.141 6.306-2.028 7.287-5.236.981-3.019-.233-6.51-2.802-8.113Z" fill="#FF7900"/></svg>